<svg xmlns="http://www.w3.org/2000/svg" width="406" height="16">
<symbol id="icon-twitter" viewBox="0 0 16 16"><path fill="none" stroke="#000" stroke-linecap="round" stroke-linejoin="round" d="M15.333 2a7.262 7.262 0 0 1-2.093 1.02 2.981 2.981 0 0 0-3.319-.83A2.987 2.987 0 0 0 8 5.021v.667c-1.172.03-2.332-.229-3.379-.756S2.341 3.15 1.667 2.191c0 0-2.333 6.477 3.667 9.144a7.76 7.76 0 0 1-4.667 1.333c6 3.333 13.333 0 13.333-7.667a3.012 3.012 0 0 0-.053-.553 5.148 5.148 0 0 0 1.387-2.447z"/></symbol>
<symbol id="icon-facebook" viewBox="0 0 16 16"><path fill="none" stroke="#000" stroke-linecap="round" stroke-linejoin="round" d="M12 1.333h-2a3.333 3.333 0 0 0-3.333 3.333v2h-2v2.667h2v5.333h2.667V9.333h2l.667-2.667H9.334v-2A.665.665 0 0 1 10 4h2V1.333z"/></symbol>
<symbol id="icon-instagram" viewBox="0 0 16 16"><path fill="none" stroke="#000" stroke-linecap="round" stroke-linejoin="round" d="M11.333 1.333H4.666a3.333 3.333 0 0 0-3.333 3.333v6.667a3.333 3.333 0 0 0 3.333 3.333h6.667a3.333 3.333 0 0 0 3.333-3.333V4.666a3.333 3.333 0 0 0-3.333-3.333z"/><path fill="none" stroke="#000" stroke-linecap="round" stroke-linejoin="round" d="M10.667 7.58a2.663 2.663 0 0 1-1.439 2.773 2.67 2.67 0 0 1-3.085-.496 2.664 2.664 0 0 1-.496-3.085A2.664 2.664 0 0 1 8.42 5.333a2.667 2.667 0 0 1 2.246 2.246zM11.667 4.333h.007"/></symbol>
<symbol id="icon-chocolate" viewBox="0 0 16 16"><path fill="#fcf1e0" d="M1.972 10.038 7.36 1.326l.32-.337 4.118 2.746.028 1.657 1.005 1.64-4.44 7.038-6.42-4.031z"/><path fill="none" stroke="#fd9222" stroke-linecap="round" stroke-linejoin="round" stroke-width="1.333" d="M10.817 11.94 3.724 7.508M5.68 4.299l7.093 4.432m-7.458 4.201 5.868-9.625m2.405 4.088c-1.52-.95-2.117-1.692-1.139-3.296L7.636 1.092l-5.868 9.625 7.093 4.432 4.727-7.754z"/></symbol>
</svg>