<svg xmlns="http://www.w3.org/2000/svg" width="406" height="16">
<symbol id="icon-twitter" viewBox="0 0 16 16"><path fill="none" stroke="#000" stroke-linecap="round" stroke-linejoin="round" d="M15.333 2a7.262 7.262 0 0 1-2.093 1.02 2.981 2.981 0 0 0-3.319-.83A2.987 2.987 0 0 0 8 5.021v.667c-1.172.03-2.332-.229-3.379-.756S2.341 3.15 1.667 2.191c0 0-2.333 6.477 3.667 9.144a7.76 7.76 0 0 1-4.667 1.333c6 3.333 13.333 0 13.333-7.667a3.012 3.012 0 0 0-.053-.553 5.148 5.148 0 0 0 1.387-2.447z"/></symbol>
<symbol id="icon-facebook" viewBox="0 0 16 16"><path fill="none" stroke="#000" stroke-linecap="round" stroke-linejoin="round" d="M12 1.333h-2a3.333 3.333 0 0 0-3.333 3.333v2h-2v2.667h2v5.333h2.667V9.333h2l.667-2.667H9.334v-2A.665.665 0 0 1 10 4h2V1.333z"/></symbol>
<symbol id="icon-instagram" viewBox="0 0 16 16"><path fill="none" stroke="#000" stroke-linecap="round" stroke-linejoin="round" d="M11.333 1.333H4.666a3.333 3.333 0 0 0-3.333 3.333v6.667a3.333 3.333 0 0 0 3.333 3.333h6.667a3.333 3.333 0 0 0 3.333-3.333V4.666a3.333 3.333 0 0 0-3.333-3.333z"/><path fill="none" stroke="#000" stroke-linecap="round" stroke-linejoin="round" d="M10.667 7.58a2.663 2.663 0 0 1-1.439 2.773 2.67 2.67 0 0 1-3.085-.496 2.664 2.664 0 0 1-.496-3.085A2.664 2.664 0 0 1 8.42 5.333a2.667 2.667 0 0 1 2.246 2.246zM11.667 4.333h.007"/></symbol>
<symbol id="icon-chocolate" viewBox="0 0 16 16"><path fill="#fcf1e0" d="M1.972 10.038 7.36 1.326l.32-.337 4.118 2.746.028 1.657 1.005 1.64-4.44 7.038-6.42-4.031z"/><path fill="none" stroke="#fd9222" stroke-linecap="round" stroke-linejoin="round" stroke-width="1.333" d="M10.817 11.94 3.724 7.508M5.68 4.299l7.093 4.432m-7.458 4.201 5.868-9.625m2.405 4.088c-1.52-.95-2.117-1.692-1.139-3.296L7.636 1.092l-5.868 9.625 7.093 4.432 4.727-7.754z"/></symbol>
<symbol  id="burger-icons"  viewBox="0 0 16 16"><path fill="none" stroke="#000" stroke-linecap="round" stroke-linejoin="round" stroke-width="1.143" d="M2 8h12M2 4h12M2 12h12"/></symbol>
<symbol id="icon-fi-rr-angle-small-left" viewBox="0 0 16 16">
<path  d="M8.473 8.933c-0.062 0.062-0.136 0.112-0.217 0.146s-0.168 0.051-0.256 0.051c-0.088 0-0.175-0.017-0.256-0.051s-0.155-0.083-0.217-0.146l-3.053-3.060c-0.062-0.062-0.136-0.112-0.217-0.146s-0.168-0.051-0.256-0.051c-0.088 0-0.175 0.017-0.256 0.051s-0.155 0.083-0.217 0.146c-0.124 0.125-0.194 0.294-0.194 0.47s0.070 0.345 0.194 0.47l3.060 3.060c0.375 0.375 0.883 0.585 1.413 0.585s1.038-0.21 1.413-0.585l3.060-3.060c0.123-0.124 0.193-0.292 0.193-0.467 0.001-0.088-0.016-0.175-0.050-0.256s-0.082-0.155-0.144-0.217c-0.062-0.062-0.136-0.112-0.217-0.146s-0.168-0.051-0.256-0.051c-0.088 0-0.175 0.017-0.256 0.051s-0.155 0.083-0.217 0.146l-3.053 3.060z"></path></symbol>
<symbol id="spoon"  viewBox="0 0 16 16"><path  d="M7.726 7.053a2.58 2.58 0 0 1-.588-1.641c0-2.162 2.591-4.321 5.181-4.321a2.592 2.592 0 0 1 2.591 2.591c0 2.591-2.159 5.182-4.323 5.182a2.58 2.58 0 0 1-1.641-.588l-6.379 6.38a.865.865 0 0 1-1.222-1.223l6.382-6.38z"/></symbol>
<symbol id="group" viewBox="0 0 16 16"><path  d="M8 .381C3.81.381.381 3.81.381 8S3.81 15.619 8 15.619c4.191 0 7.619-3.429 7.619-7.619S12.19.381 8 .381zm0 13.714c-3.352 0-6.095-2.743-6.095-6.095S4.648 1.905 8 1.905 14.095 4.648 14.095 8 11.352 14.095 8 14.095z"/><path d="M8.99 7.238H7.009c-.381 0-.686-.305-.686-.686s.305-.686.686-.686h2.819c.457 0 .762-.305.762-.762s-.305-.762-.762-.762H8.761v-.686c0-.457-.305-.762-.762-.762s-.762.305-.762.762v.686h-.229a2.21 2.21 0 1 0 0 4.419h1.905c.381 0 .686.305.686.686s-.305.686-.686.686H6.094c-.457 0-.762.305-.762.762s.305.762.762.762h1.143v.686c0 .457.305.762.762.762s.762-.305.762-.762v-.686h.229a2.21 2.21 0 1 0 0-4.419z"/></symbol>
<symbol id="chocolate-bar"  viewBox="0 0 16 16"><path fill="#111" d="m6.911 1.206 3.764 3.768.04-.04a.427.427 0 0 1 .592-.006l.437.436a.423.423 0 0 1 .041.547l-.002.003-.072.096 3.08 3.08a.697.697 0 0 1 0 .99l-4.715 4.715a.697.697 0 0 1-.99 0l-2.223-2.223c-.037.047-.083.085-.136.112s-.111.043-.17.047a.43.43 0 0 1-.322-.123l-1.3-1.3a.427.427 0 0 1-.006-.592l.003-.004.038-.038L1.206 6.91a.697.697 0 0 1 0-.99l4.715-4.715a.697.697 0 0 1 .99 0zm3.291 4.241-.878-.877a.285.285 0 0 0-.212-.09.299.299 0 0 0-.212.09L7.11 6.36a.301.301 0 0 0-.066.331c.015.037.038.07.066.099l.875.875.305-.305-.782-.782 1.605-1.61.784.787.306-.306zM7.664 7.982l-.877-.877a.285.285 0 0 0-.212-.09.299.299 0 0 0-.212.09L4.568 8.9a.296.296 0 0 0 0 .425l.876.876.308-.308-.785-.782 1.61-1.605.782.781.306-.306zM4.411 4.096l1.79 1.79c.12.12.31.12.425-.005l1.79-1.79a.28.28 0 0 0 .09-.21h.005a.307.307 0 0 0-.09-.215l-1.79-1.79a.308.308 0 0 0-.215-.089.297.297 0 0 0-.215.089l-1.79 1.795a.296.296 0 0 0 0 .425zM1.876 6.631l1.79 1.79c.12.12.31.12.425 0l1.79-1.79c.029-.028.052-.061.068-.098s.023-.077.022-.117h.005c0-.08-.03-.155-.09-.215l-1.79-1.79a.285.285 0 0 0-.212-.09.299.299 0 0 0-.212.09L1.877 6.206a.296.296 0 0 0 0 .425zm3.467 4.377 1.181 1.181 4.818-6.52-.328-.327-5.671 5.666z"/><path  d="m6.911 1.206 3.764 3.768.04-.04a.427.427 0 0 1 .592-.006l.437.436a.423.423 0 0 1 .041.547l-.002.003-.072.096 3.08 3.08a.697.697 0 0 1 0 .99l-4.715 4.715a.697.697 0 0 1-.99 0l-2.223-2.223c-.037.047-.083.085-.136.112s-.111.043-.17.047a.43.43 0 0 1-.322-.123l-1.3-1.3a.427.427 0 0 1-.006-.592l.003-.004.038-.038L1.206 6.91a.697.697 0 0 1 0-.99l4.715-4.715a.697.697 0 0 1 .99 0zm3.291 4.241-.878-.877a.285.285 0 0 0-.212-.09.299.299 0 0 0-.212.09L7.11 6.36a.301.301 0 0 0-.066.331c.015.037.038.07.066.099l.875.875.305-.305-.782-.782 1.605-1.61.784.787.306-.306zM7.664 7.982l-.877-.877a.285.285 0 0 0-.212-.09.299.299 0 0 0-.212.09L4.568 8.9a.296.296 0 0 0 0 .425l.876.876.308-.308-.785-.782 1.61-1.605.782.781.306-.306zM4.411 4.096l1.79 1.79c.12.12.31.12.425-.005l1.79-1.79a.28.28 0 0 0 .09-.21h.005a.307.307 0 0 0-.09-.215l-1.79-1.79a.308.308 0 0 0-.215-.089.297.297 0 0 0-.215.089l-1.79 1.795a.296.296 0 0 0 0 .425zM1.876 6.631l1.79 1.79c.12.12.31.12.425 0l1.79-1.79c.029-.028.052-.061.068-.098s.023-.077.022-.117h.005c0-.08-.03-.155-.09-.215l-1.79-1.79a.285.285 0 0 0-.212-.09.299.299 0 0 0-.212.09L1.877 6.206a.296.296 0 0 0 0 .425zm3.467 4.377 1.181 1.181 4.818-6.52-.328-.327-5.671 5.666z"/></symbol>
<symbol id="streamline" viewBox="0 0 16 16"><path fill="none" stroke="#fafafa" stroke-linecap="round" stroke-linejoin="round" stroke-width=".667" d="M4.571 8h6.857m0 0L9.714 6.286M11.428 8 9.714 9.714M8 15.429A7.429 7.429 0 1 0 8 .571 7.429 7.429 0 0 0 8 15.43z"/></symbol>
<symbol  id="ellipse"  viewBox="0 0 16 16"><path fill="#4c4c4c" stroke="#eceded" stroke-width="2" d="M15 8A7 7 0 1 1 1 8a7 7 0 0 1 14 0z"/></symbol>
<symbol id="play" viewBox="0 0 16 16"><path fill="#f5f4f4" d="M5.943 11.886V5.029l6.4 3.429-6.4 3.429z"/><path fill="none" stroke="#fff" stroke-width=".457" d="M15.771 8A7.77 7.77 0 1 1 .229 8a7.77 7.77 0 1 1 15.542 0z"/></symbol>
</svg>
